{"asset":{"version":"2.0","generator":"VECTARY"},"scene":0,"nodes":[{"translation":[0.01941458331823145,3.552713678800501e-18,-0.021324140434846754],"scale":[0.001,0.001,0.001],"rotation":[-0.7071067811865475,0,0,0.7071067811865476],"name":"Hat 1","children":[1,2]},{"translation":[0,0,0],"scale":[1,1,1],"rotation":[0,0,0,1],"name":"Hat","mesh":0},{"translation":[0,0,3.9630000591278076],"scale":[1,1,1],"rotation":[0,0,0,1],"name":"Ribbon","mesh":1}],"materials":[{"pbrMetallicRoughness":{"baseColorFactor":[0.8509803921568627,0.8509803921568627,0.8509803921568627,1],"metallicFactor":0,"roughnessFactor":0.5},"name":"Material 1","emissiveFactor":[0,0,0],"alphaMode":"OPAQUE","doubleSided":false},{"pbrMetallicRoughness":{"baseColorFactor":[0.24313725490196078,0.24705882352941178,0.3176470588235294,1],"metallicFactor":0,"roughnessFactor":0.5},"name":"Material 2","emissiveFactor":[0,0,0],"alphaMode":"OPAQUE","doubleSided":false}],"meshes":[{"primitives":[{"mode":4,"attributes":{"POSITION":1,"NORMAL":2,"TEXCOORD_0":3},"material":0,"indices":0}]},{"primitives":[{"mode":4,"attributes":{"POSITION":5,"NORMAL":6,"TEXCOORD_0":7},"material":1,"indices":4}]}],"accessors":[{"bufferView":0,"byteOffset":0,"componentType":5125,"count":13440,"type":"SCALAR"},{"bufferView":1,"byteOffset":0,"componentType":5126,"count":13440,"max":[170.67056274414062,211.14898681640625,119.24298095703125],"min":[-170.67056274414062,-211.14898681640625,0.22374224662780762],"type":"VEC3"},{"bufferView":2,"byteOffset":0,"componentType":5126,"count":13440,"type":"VEC3"},{"bufferView":3,"byteOffset":0,"componentType":5126,"count":13440,"type":"VEC2"},{"bufferView":4,"byteOffset":0,"componentType":5125,"count":30720,"type":"SCALAR"},{"bufferView":5,"byteOffset":0,"componentType":5126,"count":30720,"max":[93.15512084960938,107.58582305908203,16.866329193115234],"min":[-93.15512084960938,-107.58582305908203,9.30389404296875],"type":"VEC3"},{"bufferView":6,"byteOffset":0,"componentType":5126,"count":30720,"type":"VEC3"},{"bufferView":7,"byteOffset":0,"componentType":5126,"count":30720,"type":"VEC2"}],"bufferViews":[{"buffer":0,"byteOffset":0,"byteLength":53760,"target":34963},{"buffer":0,"byteOffset":53760,"byteLength":161280,"target":34962},{"buffer":0,"byteOffset":215040,"byteLength":161280,"target":34962},{"buffer":0,"byteOffset":376320,"byteLength":107520,"target":34962},{"buffer":0,"byteOffset":483840,"byteLength":122880,"target":34963},{"buffer":0,"byteOffset":606720,"byteLength":368640,"target":34962},{"buffer":0,"byteOffset":975360,"byteLength":368640,"target":34962},{"buffer":0,"byteOffset":1344000,"byteLength":245760,"target":34962}],"scenes":[{"nodes":[0],"name":"SAMPLE"}],"buffers":[{"byteLength":1589760,"uri":"SAMPLE.bin"}]}